<?xml version="1.0" standalone="no"?>
<!DOCTYPE svg PUBLIC "-//W3C//DTD SVG 20010904//EN"
 "http://www.w3.org/TR/2001/REC-SVG-20010904/DTD/svg10.dtd">
<svg version="1.0" xmlns="http://www.w3.org/2000/svg"
 width="820.000000pt" height="800.000000pt" viewBox="0 0 820.000000 800.000000"
 preserveAspectRatio="xMidYMid meet">

<g transform="translate(0.000000,800.000000) scale(0.100000,-0.100000)"
fill="#000000" stroke="none">
<path d="M3160 6755 c-608 -85 -1145 -425 -1493 -943 -169 -253 -297 -603
-337 -927 -16 -128 -14 -410 4 -537 69 -483 272 -892 612 -1233 318 -318 745
-529 1204 -596 140 -21 496 -18 634 4 236 38 489 123 686 231 36 20 71 36 78
36 12 0 331 -307 1299 -1252 203 -198 230 -221 307 -259 73 -36 95 -42 169
-46 51 -4 112 -1 149 7 174 34 330 180 382 359 23 78 21 213 -4 293 -39 126
-45 133 -570 643 -96 94 -321 312 -500 485 -179 173 -365 354 -414 401 l-90
87 77 153 c42 85 94 206 116 269 185 543 152 1122 -92 1632 -204 425 -533 764
-952 978 -187 96 -375 159 -600 201 -147 28 -509 35 -665 14z m545 -867 c133
-25 207 -52 345 -125 328 -172 559 -472 650 -843 27 -108 37 -330 21 -453 -73
-548 -510 -1001 -1054 -1092 -530 -88 -1047 158 -1325 630 -274 467 -208 1076
161 1483 310 343 744 487 1202 400z"/>
</g>
</svg>
