<?xml version="1.0" standalone="no"?>
<!DOCTYPE svg PUBLIC "-//W3C//DTD SVG 20010904//EN"
 "http://www.w3.org/TR/2001/REC-SVG-20010904/DTD/svg10.dtd">
<svg version="1.0" xmlns="http://www.w3.org/2000/svg"
 width="1000.000000pt" height="444.000000pt" viewBox="0 0 1000.000000 444.000000"
 preserveAspectRatio="xMidYMid meet">

<g transform="translate(0.000000,444.000000) scale(0.100000,-0.100000)"
fill="#000000" stroke="none">
<path d="M2655 4122 c-223 -77 -286 -361 -117 -530 23 -24 64 -53 90 -65 l47
-22 2325 0 2325 0 50 25 c64 32 130 98 157 158 31 67 32 198 1 264 -27 60 -94
127 -158 158 l-50 25 -2310 2 c-2170 2 -2313 1 -2360 -15z"/>
<path d="M2662 2525 c-139 -43 -231 -182 -220 -329 10 -113 84 -222 186 -269
l47 -22 2325 0 2325 0 50 24 c63 32 131 99 158 159 32 70 31 198 -3 267 -31
64 -91 124 -155 155 l-50 25 -2310 2 c-1919 1 -2317 -1 -2353 -12z"/>
<path d="M2660 923 c-274 -96 -295 -464 -35 -593 l50 -25 2325 0 2325 0 47 22
c60 28 134 101 161 161 32 70 31 198 -3 267 -31 64 -98 131 -158 158 l-47 22
-2310 2 c-2081 2 -2314 1 -2355 -14z"/>
</g>
</svg>
